<svg width="14" height="20" viewBox="0 0 14 20" fill="none" xmlns="http://www.w3.org/2000/svg">
<path d="M12.6 11.375H1.39998C0.157481 11.375 -0.472519 12.8574 0.411231 13.7211L6.01123 19.2211C6.55811 19.7582 7.44623 19.7582 7.99311 19.2211L13.5931 13.7211C14.4681 12.8574 13.8425 11.375 12.6 11.375ZM6.99998 18.25L1.39998 12.75H12.6L6.99998 18.25ZM1.39998 8.625H12.6C13.8425 8.625 14.4725 7.14257 13.5887 6.2789L7.98873 0.7789C7.44186 0.241791 6.55373 0.241791 6.00686 0.7789L0.406856 6.2789C-0.468144 7.14257 0.157481 8.625 1.39998 8.625ZM6.99998 1.74999L12.6 7.24999H1.39998L6.99998 1.74999Z" fill="#00C1FE"/>
</svg>
