<svg width="14" height="20" viewBox="0 0 14 20" fill="none" xmlns="http://www.w3.org/2000/svg">
<path d="M12.6002 11.375H1.40023C0.157725 11.375 -0.472275 12.8574 0.411475 13.7211L6.01148 19.2211C6.55835 19.7582 7.44648 19.7582 7.99335 19.2211L13.5934 13.7211C14.4684 12.8574 13.8427 11.375 12.6002 11.375ZM7.00023 18.25L1.40023 12.75H12.6002L7.00023 18.25ZM1.40023 8.62499H12.6002C13.8427 8.62499 14.4727 7.14257 13.589 6.2789L7.98898 0.7789C7.4421 0.241791 6.55398 0.241791 6.0071 0.7789L0.4071 6.2789C-0.4679 7.14257 0.157725 8.62499 1.40023 8.62499ZM7.00023 1.74999L12.6002 7.24999H1.40023L7.00023 1.74999Z" fill="#00C1FE"/>
</svg>
